<?xml version="1.0" encoding="UTF-8" standalone="no"?>
<!DOCTYPE svg PUBLIC "-//W3C//DTD SVG 1.1//EN" "http://www.w3.org/Graphics/SVG/1.1/DTD/svg11.dtd">
<svg width="100%" height="100%" viewBox="0 0 1205 913" version="1.1" xmlns="http://www.w3.org/2000/svg" xmlns:xlink="http://www.w3.org/1999/xlink" xml:space="preserve" xmlns:serif="http://www.serif.com/" style="fill-rule:evenodd;clip-rule:evenodd;stroke-linejoin:round;stroke-miterlimit:2;">
    <g transform="matrix(4.16667,0,0,4.16667,0,0)">
        <rect x="0" y="0" width="288.693" height="219" style="fill:rgb(35,31,32);fill-rule:nonzero;"/>
        <path d="M202.457,153.357L206.326,153.357L206.326,57.965L202.457,57.965L202.457,153.357ZM231.455,57.965L231.455,153.357L235.322,153.357L235.322,57.965L231.455,57.965ZM90.863,116.489L147.712,116.489C144.23,134.277 125.799,151.551 101.562,151.551C76.297,151.551 55.933,132.086 55.933,105.659C55.933,79.237 76.297,59.768 101.562,59.768C117.161,59.768 130.694,66.605 140.232,79.106L144.876,79.106C136.239,64.927 119.091,56.289 101.562,56.289C74.234,56.289 52.063,77.045 52.063,105.659C52.063,134.277 74.234,155.03 101.562,155.03C128.246,155.03 149.642,136.081 152.351,113.005L90.863,113.005L90.863,116.489ZM173.462,153.357L177.326,153.357L177.326,57.965L173.462,57.965L173.462,153.357Z" style="fill:white;fill-rule:nonzero;"/>
        <path d="M71.889,170.065C71.558,174.394 67.781,177.01 64.2,177.01C59.854,177.01 56.392,173.488 56.392,169.476C56.392,165.7 59.519,161.942 64.182,161.942C68.035,161.942 70.494,164.599 71.064,166.074L69.372,166.074C68.548,164.636 66.62,163.261 64.2,163.261C60.524,163.261 57.846,166.249 57.846,169.495C57.846,172.741 60.524,175.689 64.259,175.689C67.347,175.689 69.628,173.411 70.139,171.384L62.018,171.384L62.018,170.065L71.889,170.065Z" style="fill:white;fill-rule:nonzero;"/>
        <rect x="73.347" y="170.558" width="5.351" height="1.317" style="fill:white;fill-rule:nonzero;"/>
        <rect x="80.785" y="162.198" width="1.454" height="14.554" style="fill:white;fill-rule:nonzero;"/>
        <rect x="86.017" y="162.198" width="1.456" height="14.554" style="fill:white;fill-rule:nonzero;"/>
        <rect x="91.249" y="162.198" width="1.456" height="14.554" style="fill:white;fill-rule:nonzero;"/>
        <path d="M104.77,171.219L109.794,171.219L107.307,165.268L104.77,171.219ZM106.571,163.796L108.024,163.796L113.595,176.752L112.176,176.752L110.301,172.393L104.279,172.393L102.388,176.752L101.039,176.752L106.571,163.796Z" style="fill:white;fill-rule:nonzero;"/>
        <path d="M120.6,168.032C118.395,168.032 116.768,169.871 116.768,171.972C116.768,174.216 118.535,175.878 120.6,175.878C122.946,175.878 124.524,174.128 124.524,171.992C124.524,169.557 122.701,168.032 120.6,168.032ZM115.612,167.177L116.837,167.177L116.837,168.856L116.871,168.856C117.974,167.279 119.567,166.931 120.6,166.931C123.735,166.931 125.749,169.382 125.749,171.938C125.749,174.687 123.612,176.981 120.6,176.981C119.604,176.981 117.94,176.631 116.871,175.071L116.837,175.071L116.837,180.115L115.612,180.115L115.612,167.177Z" style="fill:white;fill-rule:nonzero;"/>
        <path d="M133.071,168.032C130.865,168.032 129.235,169.871 129.235,171.972C129.235,174.216 131.004,175.878 133.071,175.878C135.416,175.878 136.993,174.128 136.993,171.992C136.993,169.557 135.172,168.032 133.071,168.032ZM128.08,167.177L129.306,167.177L129.306,168.856L129.341,168.856C130.442,167.279 132.039,166.931 133.071,166.931C136.204,166.931 138.22,169.382 138.22,171.938C138.22,174.687 136.081,176.981 133.071,176.981C132.072,176.981 130.41,176.631 129.341,175.071L129.306,175.071L129.306,180.115L128.08,180.115L128.08,167.177Z" style="fill:white;fill-rule:nonzero;"/>
        <path d="M145.382,175.878C147.449,175.878 149.216,174.216 149.216,171.972C149.216,169.871 147.587,168.032 145.382,168.032C143.283,168.032 141.462,169.557 141.462,171.992C141.462,174.128 143.039,175.878 145.382,175.878ZM150.373,176.752L149.148,176.752L149.148,175.071L149.113,175.071C148.062,176.649 146.378,176.981 145.382,176.981C142.373,176.981 140.237,174.687 140.237,171.938C140.237,169.382 142.249,166.931 145.382,166.931C146.416,166.931 148.097,167.264 149.113,168.856L149.148,168.856L149.148,167.177L150.373,167.177L150.373,176.752Z" style="fill:white;fill-rule:nonzero;"/>
        <path d="M153.195,167.177L154.419,167.177L154.419,168.56L154.455,168.56C155.033,167.21 156.119,167 157.152,166.931L157.152,168.227C156.294,168.298 155.558,168.611 155.085,169.172C154.666,169.697 154.419,170.381 154.419,171.151L154.419,176.752L153.195,176.752L153.195,167.177Z" style="fill:white;fill-rule:nonzero;"/>
        <path d="M167.275,171.307C166.888,169.049 165.048,168.032 163.527,168.032C162.021,168.032 160.148,169.049 159.798,171.307L167.275,171.307ZM159.798,172.412C159.884,174.285 161.634,175.878 163.509,175.878C165.261,175.843 166.503,174.81 166.941,173.619L168.238,173.619C167.572,175.527 165.732,176.981 163.527,176.981C160.847,176.981 158.537,174.81 158.537,171.972C158.537,169.259 160.724,166.982 163.509,166.931C165.613,166.946 167.099,168.191 167.783,169.382C168.429,170.414 168.57,171.482 168.517,172.412L159.798,172.412Z" style="fill:white;fill-rule:nonzero;"/>
        <rect x="171.005" y="163.796" width="1.225" height="12.956" style="fill:white;fill-rule:nonzero;"/>
        <path d="M193.999,170.799C193.701,174.651 190.339,176.981 187.154,176.981C183.285,176.981 180.201,173.847 180.201,170.275C180.201,166.913 182.986,163.569 187.136,163.569C190.568,163.569 192.755,165.932 193.263,167.246L191.759,167.246C191.023,165.968 189.308,164.743 187.154,164.743C183.88,164.743 181.499,167.402 181.499,170.292C181.499,173.181 183.88,175.809 187.205,175.809C189.953,175.809 191.986,173.775 192.441,171.972L185.21,171.972L185.21,170.799L193.999,170.799Z" style="fill:white;fill-rule:nonzero;"/>
        <path d="M196.542,167.177L197.767,167.177L197.767,168.56L197.802,168.56C198.382,167.21 199.468,167 200.499,166.931L200.499,168.227C199.642,168.298 198.908,168.611 198.433,169.172C198.013,169.697 197.767,170.381 197.767,171.151L197.767,176.752L196.542,176.752L196.542,167.177Z" style="fill:white;fill-rule:nonzero;"/>
        <path d="M206.705,175.878C208.56,175.878 210.486,174.405 210.486,171.904C210.486,169.382 208.351,168.032 206.705,168.032C204.953,168.032 202.921,169.47 202.921,172.008C202.921,174.231 204.726,175.878 206.705,175.878ZM206.685,166.931C209.523,166.931 211.712,169.328 211.712,171.956C211.712,174.564 209.558,176.981 206.685,176.981C203.884,176.981 201.695,174.618 201.695,172.025C201.695,168.995 204.164,166.931 206.685,166.931Z" style="fill:white;fill-rule:nonzero;"/>
        <path d="M222.535,176.752L221.38,176.752L221.38,175.266L221.345,175.266C220.996,175.983 220.068,176.981 218.281,176.981C216.39,176.981 215.408,176.07 214.99,175.545C214.304,174.705 214.148,173.478 214.148,172.464L214.148,167.177L215.373,167.177L215.373,172.445C215.373,173.654 215.636,174.441 216.058,174.967C216.722,175.72 217.617,175.878 218.281,175.878C218.964,175.878 219.699,175.72 220.312,175.107C220.873,174.548 221.31,173.916 221.31,172.235L221.31,167.177L222.535,167.177L222.535,176.752Z" style="fill:white;fill-rule:nonzero;"/>
        <path d="M230.173,168.032C227.966,168.032 226.339,169.871 226.339,171.972C226.339,174.216 228.107,175.878 230.173,175.878C232.519,175.878 234.097,174.128 234.097,171.992C234.097,169.557 232.273,168.032 230.173,168.032ZM225.183,167.177L226.408,167.177L226.408,168.856L226.443,168.856C227.544,167.279 229.14,166.931 230.173,166.931C233.308,166.931 235.322,169.382 235.322,171.938C235.322,174.687 233.185,176.981 230.173,176.981C229.175,176.981 227.511,176.631 226.443,175.071L226.408,175.071L226.408,180.115L225.183,180.115L225.183,167.177Z" style="fill:white;fill-rule:nonzero;"/>
    </g>
</svg>
