<?xml version="1.0" encoding="UTF-8" standalone="no"?>
<!-- Creator: CorelDRAW 2019 (64-Bit) -->

<svg
   xml:space="preserve"
   width="185.82684mm"
   height="25.353672mm"
   version="1.1"
   style="clip-rule:evenodd;fill-rule:evenodd;image-rendering:optimizeQuality;shape-rendering:geometricPrecision;text-rendering:geometricPrecision"
   viewBox="0 0 182.01569 24.8338"
   id="svg9"
   sodipodi:docname="Quiksilver wordmark.svg"
   inkscape:version="1.4 (86a8ad7, 2024-10-11)"
   xmlns:inkscape="http://www.inkscape.org/namespaces/inkscape"
   xmlns:sodipodi="http://sodipodi.sourceforge.net/DTD/sodipodi-0.dtd"
   xmlns="http://www.w3.org/2000/svg"
   xmlns:svg="http://www.w3.org/2000/svg"><sodipodi:namedview
   id="namedview9"
   pagecolor="#ffffff"
   bordercolor="#000000"
   borderopacity="0.25"
   inkscape:showpageshadow="2"
   inkscape:pageopacity="0.0"
   inkscape:pagecheckerboard="0"
   inkscape:deskcolor="#d1d1d1"
   inkscape:document-units="mm"
   inkscape:zoom="0.55956803"
   inkscape:cx="406.56362"
   inkscape:cy="-92.03528"
   inkscape:window-width="1920"
   inkscape:window-height="1001"
   inkscape:window-x="-9"
   inkscape:window-y="-9"
   inkscape:window-maximized="1"
   inkscape:current-layer="_839162080" />
 <defs
   id="defs1">
  <style
   type="text/css"
   id="style1">
   <![CDATA[
    .fil0 {fill:black}
    .fil1 {fill:black}
   ]]>
  </style>
 </defs>
 <g
   id="Layer_x0020_1"
   inkscape:label="Layer 1"
   inkscape:groupmode="layer"
   transform="translate(-0.00160444,-103.3782)">
  <metadata
   id="CorelCorpID_0Corel-Layer" />
  <g
   id="_839162080">
   <path
   class="fil0"
   d="m 93.7362,113.7454 c -3.8817,-1.5098 -6.0461,-1.5795 -6.0461,-3.572 0,-1.1329 1.3752,-1.9579 3.1612,-1.9579 2.0607,0 3.7118,0.7541 4.5691,1.8527 l 3.5383,-2.6801 c -1.4409,-2.0221 -4.2262,-3.9139 -8.2462,-3.9139 -4.2586,0 -8.2449,2.4732 -8.2449,6.7696 0,3.5096 2.6467,5.7019 6.0807,6.9376 3.3337,1.2361 6.0135,1.7545 6.0135,3.8494 0,1.1344 -0.9294,2.3683 -3.5731,2.3683 -2.7836,0 -4.8796,-1.2697 -6.0135,-3.1604 l -3.8463,2.6473 c 1.4768,2.8846 4.6697,5.2904 9.8247,5.2904 6.0813,0 8.8979,-3.092 8.8979,-7.3195 0,-3.4349 -1.7873,-5.4617 -6.1155,-7.1116 z"
   id="path1" />
   <polygon
   class="fil0"
   points="56.6326,103.7567 51.3163,103.7567 51.3163,127.8234 56.6326,127.8234 "
   id="polygon1" />
   <polygon
   class="fil0"
   points="107.4291,103.7567 102.1121,103.7567 102.1121,127.8234 107.4291,127.8234 "
   id="polygon2" />
   <polygon
   class="fil0"
   points="110.8007,127.8243 124.9555,127.8243 124.9555,122.9895 116.1195,122.9895 116.1195,103.7583 110.8007,103.7583 "
   id="polygon3" />
   <polygon
   class="fil0"
   points="121.1925,103.7583 129.7669,127.8234 134.8443,127.8234 143.1089,103.7583 137.4453,103.7583 132.3054,119.6591 126.852,103.7583 "
   id="polygon4" />
   <polygon
   class="fil0"
   points="159.9102,122.9895 150.4954,122.9895 150.4954,118.8446 158.1378,118.8446 158.1378,114.267 150.4954,114.267 150.4954,108.5933 159.9507,108.5933 159.9507,103.7583 145.1773,103.7583 145.1773,127.8234 159.9102,127.8234 "
   id="polygon5" />
   <path
   class="fil0"
   d="m 175.8088,119.1967 c 2.9725,-1.1857 4.62,-4.3521 4.62,-7.4951 0,-4.4915 -3.6942,-7.945 -8.1816,-7.945 h -9.5255 v 24.0667 h 5.2805 v -8.0098 -4.6957 -6.5246 h 4.1074 c 1.6918,0 3.0038,1.3111 3.0038,3.1752 0,2.0366 -1.3803,3.3494 -3.4528,3.3494 h -1.1556 v 4.4627 l 5.5063,8.2428 h 6.0064 l -6.209,-8.6267 z"
   id="path5" />
   <path
   class="fil0"
   d="m 42.8176,116.9799 c 0,4.2134 -1.9672,5.8374 -4.9022,5.8374 -2.9708,0 -4.9381,-1.624 -4.9381,-5.8374 v -13.2232 h -5.3165 v 14.3309 c 0,6.8016 4.6263,10.1162 10.2546,10.1162 5.5929,0 10.2202,-3.3146 10.2202,-10.1162 v -14.3309 h -5.3181 v 13.2232 z"
   id="path6" />
   <path
   class="fil0"
   d="m 25.5898,115.7922 c 0,-6.9445 -5.6747,-12.414 -12.7936,-12.414 -7.0866,0 -12.795,5.4695 -12.795,12.414 0,6.9854 5.7084,12.4198 12.795,12.4198 1.1367,0 2.2377,-0.1418 3.2857,-0.4039 l -3.4293,-4.4174 c -4.1618,-0.0714 -7.3563,-3.3458 -7.3563,-7.5984 0,-4.1912 3.2681,-7.5964 7.4999,-7.5964 4.2299,0 7.4966,3.438 7.4966,7.5964 0,1.4192 -0.372,2.7374 -1.0215,3.8668 l -3.6387,-4.5411 -3.9731,3.2911 7.5618,9.4144 h 6.5932 l -3.2046,-4.0004 c 1.8643,-2.1439 2.98,-4.9325 2.98,-8.0308 z"
   id="path7" />
   <polygon
   class="fil0"
   points="65.3057,115.1506 65.3057,103.7583 65.0293,103.7583 59.9887,103.7583 59.9887,127.8243 65.0293,127.8243 65.3057,127.8243 65.3057,122.9155 68.4741,119.1593 75.431,127.8243 75.834,127.8243 82.0247,127.8243 82.0498,127.8243 71.9208,115.1179 81.4637,103.7583 74.9008,103.7583 "
   id="polygon7" />
   
   
  </g>
 </g>
</svg>
